<svg width="12" height="13" viewBox="0 0 12 13" fill="none" xmlns="http://www.w3.org/2000/svg">
<path d="M0.220978 4.50195C0.220978 6.98242 1.97887 9.00195 4.13798 9.00195C5.05943 9.00195 5.89927 8.61914 6.56911 8.00195L10.9009 12.9785L11.5198 12.2754L7.18454 7.29492C7.72177 6.52539 8.05499 5.56055 8.05499 4.50195C8.05499 2.02148 6.29709 0.00195312 4.13798 0.00195312C1.97887 0.00195312 0.220978 2.02148 0.220978 4.50195ZM1.09142 4.50195C1.09142 2.56445 2.45149 1.00195 4.13798 1.00195C5.82447 1.00195 7.18454 2.56445 7.18454 4.50195C7.18454 6.43945 5.82447 8.00195 4.13798 8.00195C2.45149 8.00195 1.09142 6.43945 1.09142 4.50195Z" fill="black"/>
</svg>
